<?xml version="1.0" encoding="UTF-8"?>
<svg xmlns="http://www.w3.org/2000/svg" width="960" height="540" viewBox="0 0 960 540"><rect width="960" height="540" fill="#f3efe6"/><rect x="24" y="24" width="912" height="492" rx="18" fill="#fff" stroke="#ddd" stroke-width="2"/><line x1="480.0" y1="480.0" x2="480.0" y2="60.0" stroke="#FF1493" stroke-width="12" stroke-linecap="round"/><circle cx="480.0" cy="480.0" r="9" fill="#fff" stroke="#FF1493" stroke-width="3"/><circle cx="480.0" cy="427.5" r="9" fill="#fff" stroke="#FF1493" stroke-width="3"/><circle cx="480.0" cy="375.0" r="9" fill="#fff" stroke="#FF1493" stroke-width="3"/><circle cx="480.0" cy="322.5" r="9" fill="#fff" stroke="#FF1493" stroke-width="3"/><line x1="280.3" y1="334.9" x2="679.7" y2="205.1" stroke="#E80000" stroke-width="12" stroke-linecap="round"/><circle cx="280.3" cy="334.9" r="9" fill="#fff" stroke="#E80000" stroke-width="3"/><circle cx="330.2" cy="318.7" r="9" fill="#fff" stroke="#E80000" stroke-width="3"/><circle cx="380.1" cy="302.4" r="9" fill="#fff" stroke="#E80000" stroke-width="3"/><circle cx="430.1" cy="286.2" r="9" fill="#fff" stroke="#E80000" stroke-width="3"/><circle cx="529.9" cy="253.8" r="9" fill="#fff" stroke="#E80000" stroke-width="3"/><circle cx="579.9" cy="237.6" r="9" fill="#fff" stroke="#E80000" stroke-width="3"/><circle cx="629.8" cy="221.3" r="9" fill="#fff" stroke="#E80000" stroke-width="3"/><circle cx="679.7" cy="205.1" r="9" fill="#fff" stroke="#E80000" stroke-width="3"/><line x1="480.0" y1="270.0" x2="603.4" y2="439.9" stroke="#FF1493" stroke-width="12" stroke-linecap="round"/><circle cx="510.9" cy="312.5" r="9" fill="#fff" stroke="#FF1493" stroke-width="3"/><circle cx="541.7" cy="354.9" r="9" fill="#fff" stroke="#FF1493" stroke-width="3"/><circle cx="572.6" cy="397.4" r="9" fill="#fff" stroke="#FF1493" stroke-width="3"/><circle cx="603.4" cy="439.9" r="9" fill="#fff" stroke="#FF1493" stroke-width="3"/><line x1="603.4" y1="100.1" x2="356.6" y2="439.9" stroke="#66CC33" stroke-width="12" stroke-linecap="round"/><circle cx="603.4" cy="100.1" r="9" fill="#fff" stroke="#66CC33" stroke-width="3"/><circle cx="572.6" cy="142.6" r="9" fill="#fff" stroke="#66CC33" stroke-width="3"/><circle cx="541.7" cy="185.1" r="9" fill="#fff" stroke="#66CC33" stroke-width="3"/><circle cx="510.9" cy="227.5" r="9" fill="#fff" stroke="#66CC33" stroke-width="3"/><circle cx="449.1" cy="312.5" r="9" fill="#fff" stroke="#66CC33" stroke-width="3"/><circle cx="418.3" cy="354.9" r="9" fill="#fff" stroke="#66CC33" stroke-width="3"/><circle cx="387.4" cy="397.4" r="9" fill="#fff" stroke="#66CC33" stroke-width="3"/><line x1="679.7" y1="334.9" x2="280.3" y2="205.1" stroke="#A9CC51" stroke-width="12" stroke-linecap="round"/><circle cx="679.7" cy="334.9" r="9" fill="#fff" stroke="#A9CC51" stroke-width="3"/><circle cx="629.8" cy="318.7" r="9" fill="#fff" stroke="#A9CC51" stroke-width="3"/><circle cx="579.9" cy="302.4" r="9" fill="#fff" stroke="#A9CC51" stroke-width="3"/><circle cx="529.9" cy="286.2" r="9" fill="#fff" stroke="#A9CC51" stroke-width="3"/><circle cx="430.1" cy="253.8" r="9" fill="#fff" stroke="#A9CC51" stroke-width="3"/><circle cx="380.1" cy="237.6" r="9" fill="#fff" stroke="#A9CC51" stroke-width="3"/><circle cx="330.2" cy="221.3" r="9" fill="#fff" stroke="#A9CC51" stroke-width="3"/><circle cx="280.3" cy="205.1" r="9" fill="#fff" stroke="#A9CC51" stroke-width="3"/><circle cx="480" cy="270" r="16" fill="#fff" stroke="#222" stroke-width="5"/><rect x="402" y="248" width="156" height="44" rx="10" fill="#1a1f24" opacity="0.92"/><text x="480" y="277" text-anchor="middle" font-family="sans-serif" font-size="20" font-weight="700" fill="#f3efe6">???</text><text x="480" y="500" text-anchor="middle" font-family="sans-serif" font-size="14" fill="#888">5 lines</text></svg>
